<svg width="149" height="36" viewBox="0 0 149 36" fill="none" xmlns="http://www.w3.org/2000/svg">
<path d="M43.0795 9.20622H46.937C50.4043 9.13738 51.805 10.561 51.759 14.0742V20.7331C51.828 24.2463 50.4043 25.6699 46.937 25.6011H43.0795V9.20622ZM47.006 23.5577C48.7511 23.5577 49.2103 22.8688 49.2333 20.297V14.5105C49.2103 11.9387 48.751 11.2499 47.006 11.2499H45.6052V23.5577H47.006Z" fill="#201F1F"/>
<path d="M58.259 22.2027L57.5242 25.6011H54.7917L59.2464 9.20618H61.3587L65.7904 25.6011H63.058L62.3462 22.2027H58.259ZM60.3026 12.6965L58.6952 20.1591H61.887L60.3026 12.6965Z" fill="#201F1F"/>
<path d="M69.3698 9.20622H73.2273C76.6945 9.13738 78.0953 10.561 78.0494 14.0742V20.7331C78.1182 24.2463 76.6945 25.6699 73.2273 25.6011H69.3698V9.20622ZM73.2962 23.5577C75.0412 23.5577 75.5005 22.8688 75.5234 20.297V14.5105C75.5005 11.9387 75.0412 11.2499 73.2962 11.2499H71.8955V23.5577H73.2962Z" fill="#201F1F"/>
<path d="M84.5494 22.2027L83.8146 25.6011H81.0822L85.5368 9.20622H87.6493L92.081 25.6011H89.3485L88.6367 22.2028L84.5494 22.2027ZM86.5929 12.6965L84.9857 20.1591H88.1774L86.5929 12.6965Z" fill="#201F1F"/>
<path d="M92.9575 9.20622H95.4835L98.0551 21.4908L100.604 9.20622H103.13L99.1574 25.6011H96.9301L92.9575 9.20622Z" fill="#201F1F"/>
<path d="M107.529 22.2027L106.794 25.6011H104.062L108.516 9.20618H110.629L115.06 25.6011H112.328L111.616 22.2027H107.529ZM109.572 12.6965L107.965 20.1591H111.157L109.572 12.6965Z" fill="#201F1F"/>
<path d="M120.729 9.20622V20.6873C120.729 21.8125 120.798 22.3865 120.982 22.7999C121.28 23.4885 121.717 23.7643 122.497 23.7643C123.462 23.7643 123.921 23.4657 124.219 22.6621C124.357 22.2716 124.403 21.6976 124.403 20.6873V9.20628H126.929V20.6873C126.929 22.6621 126.768 23.4886 126.194 24.2924C125.413 25.3716 124.357 25.8308 122.566 25.8308C120.66 25.8308 119.512 25.2798 118.777 24.0399C118.341 23.3052 118.203 22.5013 118.203 20.6874V9.20637L120.729 9.20622Z" fill="#201F1F"/>
<path d="M131.399 9.20622H133.925V23.5115H138.977V25.6012H131.399V9.20622Z" fill="#201F1F"/>
<path d="M143.527 11.2957H140.657V9.20622H148.923V11.2957H146.053V25.6011H143.527V11.2957Z" fill="#201F1F"/>
<path d="M17.4782 9.16133L14.9258 6.60896H20.0305L17.4782 9.16133Z" fill="#201F1F"/>
<path d="M17.4781 10.2891C15.7456 10.2891 14.052 10.8029 12.6114 11.7655C11.1709 12.728 10.0481 14.0961 9.38507 15.6968C8.72205 17.2974 8.54858 19.0588 8.88659 20.758C9.22459 22.4573 10.0589 24.0181 11.284 25.2432C12.5091 26.4683 14.0699 27.3026 15.7692 27.6406C17.4684 27.9786 19.2298 27.8051 20.8304 27.1421C22.4311 26.4791 23.7992 25.3563 24.7617 23.9158C25.7243 22.4752 26.238 20.7816 26.238 19.049C26.238 16.7258 25.3151 14.4976 23.6723 12.8548C22.0295 11.2121 19.8014 10.2891 17.4781 10.2891ZM24.4463 21.9353C24.4112 22.0199 23.0427 21.5802 22.2453 21.3157C22.0262 21.7754 21.7418 22.201 21.4009 22.5793C21.9574 23.2078 22.8971 24.2963 22.8114 24.3822C22.7684 24.4251 21.6629 23.5038 21.0202 22.9616C20.6409 23.3053 20.2136 23.5921 19.7518 23.813C20.0253 24.6067 20.4766 25.9707 20.3644 26.0171C20.337 26.0286 19.657 24.7606 19.2612 24.0173C18.7769 24.1912 18.2696 24.2931 17.7557 24.3196C17.7046 25.1574 17.5996 26.5912 17.4782 26.5912C17.3567 26.5912 17.2517 25.1574 17.2007 24.3196C16.6867 24.2931 16.1794 24.1912 15.6951 24.0173C15.2994 24.7606 14.6193 26.0286 14.5919 26.0171C14.4797 25.9707 14.931 24.6067 15.2045 23.813C14.7427 23.5921 14.3154 23.3053 13.9361 22.9616C13.2934 23.5038 12.1879 24.4251 12.145 24.3822C12.0591 24.2963 12.9991 23.2078 13.5554 22.5793C13.2146 22.2009 12.9302 21.7754 12.711 21.3157C11.9135 21.5802 10.5451 22.0199 10.51 21.9353C10.4636 21.8232 11.7477 21.1775 12.5023 20.8097C12.333 20.3321 12.2338 19.8326 12.2076 19.3266C11.3697 19.2755 9.93588 19.1704 9.93588 19.049C9.93588 18.9276 11.3697 18.8225 12.2076 18.7715C12.2338 18.2655 12.333 17.7659 12.5023 17.2883C11.7477 16.9205 10.4636 16.2749 10.51 16.1627C10.5565 16.0506 11.9204 16.5019 12.7141 16.7754C12.9329 16.3184 13.2162 15.8952 13.5553 15.5188C12.9989 14.8902 12.0592 13.8017 12.1449 13.7159C12.2307 13.63 13.3193 14.57 13.9479 15.1262C14.3243 14.7871 14.7475 14.5038 15.2045 14.285C14.931 13.4913 14.4797 12.1273 14.5919 12.0809C14.7041 12.0345 15.3496 13.3186 15.7175 14.0731C16.1951 13.9039 16.6946 13.8046 17.2006 13.7784C17.2517 12.9406 17.3567 11.5068 17.4781 11.5068C17.5996 11.5068 17.7046 12.9406 17.7557 13.7784C18.2617 13.8047 18.7612 13.9039 19.2388 14.0731C19.6066 13.3186 20.2523 12.0344 20.3644 12.0809C20.4766 12.1274 20.0253 13.4913 19.7517 14.285C20.2088 14.5038 20.6319 14.7871 21.0083 15.1262C21.6369 14.57 22.7254 13.6301 22.8113 13.7159C22.8972 13.8017 21.9572 14.8903 21.4009 15.5188C21.7401 15.8952 22.0234 16.3184 22.2421 16.7754C23.0357 16.5019 24.3998 16.0506 24.4462 16.1627C24.4927 16.2749 23.2085 16.9205 22.454 17.2883C22.6232 17.7659 22.7225 18.2655 22.7487 18.7715C23.5865 18.8226 25.0204 18.9276 25.0204 19.049C25.0204 19.1705 23.5865 19.2755 22.7487 19.3266C22.7225 19.8326 22.6232 20.3322 22.454 20.8098C23.2085 21.1775 24.4927 21.8232 24.4462 21.9353H24.4463Z" fill="#201F1F"/>
<path d="M33.7832 29.1258C32.8805 27.8623 32.2969 26.0514 32.8805 24.9868C33.5367 23.7904 34.3244 22.5503 33.9507 20.7002C33.8517 20.2309 33.7806 19.7562 33.7378 19.2785C33.7378 19.2785 34.9562 18.4401 34.9562 17.5173C34.9562 16.5945 33.7378 15.7561 33.7378 15.7561C33.7806 15.2783 33.8517 14.8035 33.9507 14.3341C34.3244 12.4843 33.5367 11.2441 32.8805 10.0478C32.2968 8.98297 32.8805 7.17222 33.7832 5.90877C34.6859 4.64532 34.3985 3.99269 34.3985 3.05298C34.3985 2.11327 35.0464 1.61019 34.3696 0.625617C33.3851 -0.0512304 32.882 0.596765 31.9423 0.596765C31.0026 0.596765 30.35 0.309894 29.0867 1.21228C27.8235 2.11467 22.511 -0.334866 20.6611 0.039097C19.7978 0.213528 19.2391 1.25743 19.2391 1.25743C19.2391 1.25743 18.401 0.039097 17.4782 0.039097C16.5554 0.039097 15.717 1.25743 15.717 1.25743C15.717 1.25743 15.1584 0.213549 14.2951 0.039097C12.4453 -0.334887 7.13302 2.11471 5.86978 1.21234C4.60653 0.309976 3.95349 0.596847 3.01398 0.596847C2.07448 0.596847 1.57122 -0.0511067 0.586623 0.625699C-0.0902244 1.61027 0.557771 2.11364 0.557771 3.05306C0.557771 3.99248 0.270694 4.64538 1.17306 5.90885C2.07543 7.17232 2.65939 8.98305 2.07572 10.0479C1.41946 11.2443 0.631735 12.4844 1.00547 14.3343C1.1045 14.8036 1.17559 15.2785 1.21836 15.7562C1.21836 15.7562 0 16.5945 0 17.5173C0 18.4401 1.21836 19.2785 1.21836 19.2785C1.17559 19.7562 1.1045 20.2309 1.00547 20.7002C0.631735 22.5503 1.41946 23.7904 2.07561 24.9868C2.65935 26.0514 2.07561 27.8623 1.17296 29.1258C0.270302 30.3893 0.557668 31.0419 0.557668 31.9814C0.557668 32.9209 -0.0902862 33.4241 0.58652 34.409C1.57112 35.0856 2.07446 34.4378 3.01388 34.4378C3.9533 34.4378 4.60622 34.7247 5.86967 33.8223C7.13312 32.9199 12.4452 35.3693 14.295 34.9953C15.1583 34.8207 15.717 33.7772 15.717 33.7772C15.717 33.7772 16.5552 34.9953 17.4782 34.9953C18.4013 34.9953 19.2392 33.7772 19.2392 33.7772C19.2392 33.7772 19.7978 34.8207 20.6612 34.9953C22.511 35.3693 27.8233 32.9199 29.0868 33.8223C30.3502 34.7247 31.0028 34.4378 31.9423 34.4378C32.8818 34.4378 33.3851 35.0855 34.3697 34.409C35.0465 33.4241 34.3985 32.921 34.3985 31.9814C34.3985 31.0417 34.6856 30.389 33.7832 29.1258ZM17.4781 29.8732H6.29217C5.98192 29.8732 5.68438 29.7499 5.465 29.5306C5.24562 29.3112 5.12237 29.0136 5.12236 28.7034V6.33128C5.12236 6.02103 5.24561 5.72349 5.46499 5.50411C5.68437 5.28473 5.98192 5.16148 6.29217 5.16148H28.6641C28.9743 5.16149 29.2719 5.28474 29.4912 5.50412C29.7106 5.7235 29.8339 6.02104 29.8339 6.33128V28.7034C29.8339 29.0136 29.7106 29.3112 29.4912 29.5306C29.2719 29.7499 28.9743 29.8732 28.6641 29.8732H17.4781Z" fill="#201F1F"/>
</svg>
