<svg width="26" height="26" viewBox="0 0 26 26" fill="none" xmlns="http://www.w3.org/2000/svg">
<path d="M13.0002 7.13092L11.1829 5.31769H14.8175L13.0002 7.13092Z" fill="#0F0EA7"/>
<path d="M13.0001 7.93213C11.7665 7.93213 10.5606 8.29711 9.53495 8.98092C8.50927 9.66472 7.70986 10.6366 7.23779 11.7738C6.76572 12.9109 6.64221 14.1621 6.88287 15.3693C7.12353 16.5765 7.71755 17.6853 8.58982 18.5556C9.46209 19.426 10.5734 20.0186 11.7833 20.2588C12.9932 20.4989 14.2472 20.3756 15.3869 19.9046C16.5266 19.4336 17.5007 18.636 18.186 17.6126C18.8714 16.5892 19.2372 15.386 19.2372 14.1552C19.2371 12.5048 18.58 10.9219 17.4103 9.75483C16.2407 8.58778 14.6542 7.93213 13.0001 7.93213ZM17.9614 16.2057C17.9365 16.2658 16.9621 15.9534 16.3943 15.7655C16.2383 16.0921 16.0358 16.3944 15.7931 16.6632C16.1893 17.1097 16.8584 17.883 16.7973 17.944C16.7668 17.9744 15.9797 17.32 15.5221 16.9347C15.252 17.1789 14.9478 17.3827 14.6189 17.5396C14.8137 18.1035 15.135 19.0725 15.0551 19.1054C15.0356 19.1136 14.5514 18.2128 14.2697 17.6848C13.9248 17.8083 13.5636 17.8807 13.1977 17.8995C13.1613 18.4947 13.0866 19.5133 13.0001 19.5133C12.9136 19.5133 12.8389 18.4947 12.8025 17.8995C12.4366 17.8807 12.0754 17.8083 11.7305 17.6848C11.4488 18.2128 10.9646 19.1136 10.9451 19.1054C10.8652 19.0724 11.1865 18.1035 11.3813 17.5396C11.0525 17.3827 10.7482 17.1789 10.4781 16.9347C10.0205 17.32 9.23343 17.9744 9.20287 17.944C9.14173 17.883 9.81098 17.1096 10.2071 16.6632C9.9644 16.3944 9.76191 16.092 9.60589 15.7655C9.03803 15.9534 8.06372 16.2658 8.03877 16.2057C8.0057 16.126 8.92 15.6673 9.45725 15.4061C9.33675 15.0668 9.26607 14.7119 9.24742 14.3524C8.65087 14.3161 7.62997 14.2415 7.62997 14.1552C7.62997 14.069 8.65087 13.9943 9.24742 13.9581C9.26607 13.5986 9.33675 13.2437 9.45725 12.9044C8.92 12.6431 8.0057 12.1845 8.03877 12.1048C8.07185 12.0251 9.04299 12.3457 9.6081 12.54C9.76383 12.2153 9.96554 11.9147 10.207 11.6473C9.81086 11.2008 9.14176 10.4275 9.20283 10.3665C9.2639 10.3055 10.039 10.9733 10.4865 11.3685C10.7545 11.1275 11.0559 10.9262 11.3813 10.7709C11.1865 10.207 10.8652 9.23799 10.9451 9.20502C11.0249 9.17205 11.4846 10.0843 11.7465 10.6203C12.0865 10.5001 12.4422 10.4296 12.8025 10.411C12.8389 9.81577 12.9136 8.79715 13.0001 8.79715C13.0865 8.79715 13.1613 9.81577 13.1977 10.411C13.558 10.4296 13.9137 10.5001 14.2537 10.6203C14.5156 10.0843 14.9753 9.17201 15.0551 9.20502C15.135 9.23804 14.8137 10.207 14.6189 10.7709C14.9443 10.9262 15.2456 11.1275 15.5136 11.3685C15.9611 10.9733 16.7361 10.3055 16.7973 10.3665C16.8585 10.4275 16.1892 11.2008 15.7931 11.6473C16.0346 11.9147 16.2363 12.2153 16.392 12.54C16.9571 12.3458 17.9283 12.0251 17.9614 12.1048C17.9944 12.1845 17.0801 12.6431 16.5429 12.9044C16.6634 13.2437 16.7341 13.5986 16.7527 13.9581C17.3493 13.9943 18.3702 14.069 18.3702 14.1552C18.3702 14.2415 17.3493 14.3161 16.7527 14.3524C16.7341 14.7119 16.6634 15.0668 16.5429 15.4061C17.0801 15.6673 17.9945 16.126 17.9614 16.2057H17.9614Z" fill="#0F0EA7"/>
<path d="M24.6093 21.3138C23.9666 20.4163 23.551 19.1297 23.9666 18.3734C24.4338 17.5235 24.9947 16.6425 24.7285 15.3282C24.658 14.9948 24.6074 14.6576 24.577 14.3182C24.577 14.3182 25.4444 13.7227 25.4444 13.0671C25.4444 12.4115 24.577 11.8159 24.577 11.8159C24.6074 11.4765 24.658 11.1392 24.7285 10.8057C24.9947 9.49155 24.4338 8.61056 23.9666 7.76064C23.551 7.0042 23.9666 5.71782 24.6093 4.82026C25.252 3.92269 25.0474 3.45905 25.0474 2.79148C25.0474 2.1239 25.5087 1.76651 25.0268 1.06706C24.3258 0.586218 23.9676 1.04656 23.2986 1.04656C22.6295 1.04656 22.1648 0.842764 21.2654 1.48383C20.366 2.12489 16.5834 0.384721 15.2663 0.650388C14.6517 0.774305 14.2539 1.51591 14.2539 1.51591C14.2539 1.51591 13.6572 0.650388 13.0001 0.650388C12.3431 0.650388 11.7461 1.51591 11.7461 1.51591C11.7461 1.51591 11.3484 0.77432 10.7337 0.650388C9.41663 0.384706 5.63429 2.12492 4.73485 1.48387C3.83542 0.842823 3.37045 1.04662 2.70152 1.04662C2.03259 1.04662 1.67427 0.586306 0.973235 1.06712C0.491317 1.76657 0.952692 2.12416 0.952692 2.79153C0.952692 3.45891 0.748292 3.92273 1.39078 4.82031C2.03327 5.7179 2.44905 7.00426 2.03347 7.7607C1.56621 8.61064 1.00535 9.49164 1.27146 10.8058C1.34196 11.1392 1.39258 11.4766 1.42303 11.816C1.42303 11.816 0.555557 12.4115 0.555557 13.0671C0.555557 13.7227 1.42303 14.3183 1.42303 14.3183C1.39258 14.6576 1.34197 14.9949 1.27146 15.3282C1.00535 16.6425 1.56621 17.5235 2.0334 18.3735C2.44902 19.1298 2.0334 20.4163 1.39071 21.3139C0.748013 22.2114 0.952619 22.6751 0.952619 23.3425C0.952619 24.0099 0.491273 24.3674 0.973161 25.0671C1.6742 25.5477 2.03258 25.0876 2.70145 25.0876C3.37032 25.0876 3.8352 25.2913 4.73478 24.6503C5.63436 24.0092 9.41655 25.7493 10.7337 25.4836C11.3483 25.3595 11.7461 24.6182 11.7461 24.6182C11.7461 24.6182 12.3429 25.4836 13.0001 25.4836C13.6573 25.4836 14.2539 24.6182 14.2539 24.6182C14.2539 24.6182 14.6517 25.3595 15.2664 25.4836C16.5835 25.7493 20.3658 24.0092 21.2654 24.6503C22.165 25.2913 22.6297 25.0876 23.2986 25.0876C23.9675 25.0876 24.3259 25.5477 25.0269 25.0671C25.5088 24.3674 25.0474 24.01 25.0474 23.3425C25.0474 22.6749 25.2518 22.2113 24.6093 21.3138ZM13 21.8448H5.0356C4.8147 21.8448 4.60285 21.7572 4.44665 21.6014C4.29045 21.4455 4.2027 21.2342 4.2027 21.0138V5.12042C4.2027 4.90001 4.29045 4.68863 4.44665 4.53278C4.60285 4.37693 4.8147 4.28938 5.0356 4.28938H20.9645C21.1854 4.28938 21.3972 4.37694 21.5534 4.53279C21.7096 4.68864 21.7974 4.90001 21.7974 5.12042V21.0138C21.7974 21.2342 21.7096 21.4455 21.5534 21.6014C21.3972 21.7572 21.1854 21.8448 20.9645 21.8448H13Z" fill="#0F0EA7"/>
</svg>
