<svg id="Layer_1" data-name="Layer 1" xmlns="http://www.w3.org/2000/svg" viewBox="0 0 170.0576 171.6246">
  <g id="logoMark">
    <polygon id="logoMark_PathItem_" data-name="logoMark &lt;PathItem&gt;" points="84.81 44.454 72.425 32.069 97.195 32.069 84.81 44.454" style="fill: #0f0ea7"/>
    <path id="logoMark_CompoundPathItem_" data-name="logoMark &lt;CompoundPathItem&gt;" d="M84.81,49.9265a42.506,42.506,0,1,0,42.5061,42.506A42.5061,42.5061,0,0,0,84.81,49.9265Zm33.8118,56.5112c-.17.4107-6.8105-1.7232-10.68-3.0065a25.6418,25.6418,0,0,1-4.0969,6.1313c2.7,3.05,7.26,8.3317,6.8438,8.7483-.2083.2082-5.5725-4.262-8.6912-6.8933a25.646,25.646,0,0,1-6.1548,4.1315c1.3272,3.8513,3.5169,10.47,2.9727,10.6951-.1333.0555-3.4329-6.0972-5.3531-9.7037a25.4994,25.4994,0,0,1-7.3054,1.4667c-.2478,4.0654-.7575,11.0229-1.3467,11.0229s-1.0988-6.9575-1.3466-11.0229a25.5008,25.5008,0,0,1-7.3055-1.4667c-1.92,3.6065-5.22,9.7592-5.353,9.7037-.5444-.2253,1.6455-6.8438,2.9727-10.6951a25.6537,25.6537,0,0,1-6.1551-4.1315c-3.1184,2.6313-8.4826,7.1015-8.6909,6.8933-.4167-.4166,4.1443-5.6987,6.8438-8.7483a25.6518,25.6518,0,0,1-4.0972-6.1313c-3.87,1.2833-10.51,3.4172-10.68,3.0065-.2254-.5441,6.0056-3.677,9.667-5.4616a25.4926,25.4926,0,0,1-1.43-7.1968c-4.0655-.2478-11.023-.7576-11.023-1.3468s6.9575-1.099,11.023-1.3468a25.4919,25.4919,0,0,1,1.43-7.1968c-3.6614-1.7847-9.8924-4.9175-9.667-5.4617S57.8422,80.073,61.6935,81.4a25.6421,25.6421,0,0,1,4.0818-6.0974c-2.7-3.05-7.26-8.3317-6.8438-8.7483S64.63,70.6985,67.68,73.3978a25.65,25.65,0,0,1,6.0977-4.0818c-1.3272-3.8513-3.5171-10.47-2.9727-10.6952s3.6768,6.0057,5.4617,9.667a25.4956,25.4956,0,0,1,7.1968-1.43c.2478-4.0654.7575-11.0229,1.3466-11.0229s1.0989,6.9575,1.3467,11.0229a25.5026,25.5026,0,0,1,7.1968,1.43c1.7847-3.6615,4.9175-9.8925,5.4617-9.667S97.17,65.4647,95.8424,69.316a25.65,25.65,0,0,1,6.0974,4.0818c3.05-2.6993,8.3318-7.26,8.7486-6.8436s-4.1443,5.6987-6.8438,8.7483A25.6491,25.6491,0,0,1,107.9264,81.4c3.8511-1.3269,10.47-3.5168,10.6953-2.9727s-6.0058,3.677-9.667,5.4617a25.4954,25.4954,0,0,1,1.43,7.1968c4.0654.2478,11.023.7576,11.023,1.3468s-6.9576,1.099-11.023,1.3468a25.4961,25.4961,0,0,1-1.43,7.1968C112.6159,102.7607,118.8471,105.8936,118.6217,106.4377Z" style="fill: #0f0ea7"/>
    <path id="logoMark_CompoundPathItem_2" data-name="logoMark &lt;CompoundPathItem&gt;" d="M163.9279,141.3288c-4.38-6.1308-7.2122-14.9182-4.38-20.084,3.184-5.8051,7.0063-11.8226,5.1927-20.8a58.79,58.79,0,0,1-1.0329-6.8984s5.9118-4.0681,5.9118-8.546-5.9118-8.5459-5.9118-8.5459a58.8188,58.8188,0,0,1,1.0329-6.9c1.8136-8.9762-2.0087-14.9937-5.1927-20.7989-2.8325-5.1668,0-13.9532,4.38-20.0839s2.9856-9.2975,2.9856-13.8573,3.1441-7.0009-.14-11.7784c-4.7775-3.2843-7.2186-.14-11.7784-.14s-7.7265-1.392-13.8562,2.9867S109.231-1.6246,100.2549.19c-4.1889.8464-6.9,5.9118-6.9,5.9118S89.2883.19,84.8105.19s-8.546,5.9118-8.546,5.9118S73.5539,1.0365,69.365.19c-8.9762-1.8147-34.7531,10.0716-40.8828,5.693S19.1837,2.8964,14.6249,2.8964s-7.0008-3.1441-11.7784.14c-3.2843,4.7775-.14,7.22-.14,11.7784s-1.393,7.7265,2.9856,13.8573,7.2122,14.9171,4.38,20.0839C6.8877,54.5614,3.0654,60.5789,4.8789,69.5551a58.8354,58.8354,0,0,1,1.033,6.9S0,80.5227,0,85.0005s5.9119,8.546,5.9119,8.546a58.8064,58.8064,0,0,1-1.033,6.8984c-1.8135,8.9773,2.0088,14.9948,5.1927,20.8,2.8325,5.1658,0,13.9532-4.38,20.084s-2.9856,9.2975-2.9856,13.8562-3.1441,7.0008.14,11.7795c4.7776,3.2832,7.22.14,11.7784.14s7.7266,1.3919,13.8573-2.9867,31.9066,7.5066,40.8828,5.6919c4.1889-.8475,6.9-5.9108,6.9-5.9108s4.067,5.9108,8.546,5.9108,8.5448-5.9108,8.5448-5.9108,2.7107,5.0633,6.9,5.9108c8.9761,1.8147,34.7531-10.0705,40.8838-5.6919s9.2975,2.9867,13.8562,2.9867,7.0009,3.143,11.7784-.14c3.2843-4.7787.14-7.22.14-11.7795S168.3066,147.4585,163.9279,141.3288ZM84.81,144.9554H30.5318a5.6763,5.6763,0,0,1-5.6763-5.6762V30.7219a5.6763,5.6763,0,0,1,5.6763-5.6763H139.0881a5.6763,5.6763,0,0,1,5.6762,5.6763V139.2792a5.6762,5.6762,0,0,1-5.6762,5.6762Z" style="fill: #0f0ea7"/>
  </g>
</svg>
