<svg width="24" height="23" viewBox="0 0 24 23" fill="none" xmlns="http://www.w3.org/2000/svg">
    <path fill-rule="evenodd" clip-rule="evenodd" d="M17.3009 8.53251C17.3009 13.2449 13.428 17.065 8.65047 17.065C3.87295 17.065 0 13.2449 0 8.53251C0 3.82013 3.87295 0 8.65047 0C13.428 0 17.3009 3.82013 17.3009 8.53251ZM18.0009 11.3607C18.4689 9.85319 18.5549 8.25548 18.2513 6.70759C19.523 7.27804 20.6356 8.14392 21.4939 9.23111C22.3522 10.3183 22.9307 11.5944 23.1798 12.9503C23.4289 14.3062 23.3413 15.7014 22.9243 17.0165C22.5074 18.3317 21.7736 19.5276 20.7858 20.502C19.798 21.4763 18.5855 22.2001 17.2522 22.6113C15.9189 23.0226 14.5044 23.109 13.1298 22.8633C11.7551 22.6176 10.4614 22.047 9.35914 21.2004C8.25692 20.3538 7.37907 19.2564 6.80072 18.002C8.37002 18.3015 9.98982 18.2167 11.5182 17.755C13.0465 17.2934 14.4367 16.4691 15.5669 15.3542C16.6972 14.2394 17.5329 12.8682 18.0009 11.3607Z" fill="#F1DE0E"/>
</svg>
